G75*
%MOIN*%
%OFA0B0*%
%FSLAX24Y24*%
%IPPOS*%
%LPD*%
%AMOC8*
5,1,8,0,0,1.08239X$1,22.5*
%
%ADD10R,0.0200X0.0200*%
%ADD11C,0.0050*%
%ADD12R,0.0157X0.0492*%
%ADD13R,0.0492X0.0157*%
%ADD14R,0.0189X0.0492*%
%ADD15R,0.0492X0.0189*%
%ADD16R,0.0430X0.0180*%
%ADD17R,0.0189X0.0295*%
%ADD18R,0.0200X0.0200*%
%ADD19C,0.0040*%
%ADD20R,0.0531X0.0236*%
%ADD21C,0.0100*%
%ADD22R,0.0165X0.0640*%
%ADD23R,0.0165X0.0630*%
%ADD24R,0.0295X0.1378*%
%ADD25R,0.0276X0.0236*%
%ADD26C,0.0060*%
%ADD27R,0.0180X0.0230*%
%ADD28R,0.0240X0.0240*%
%ADD29R,0.0236X0.0276*%
%ADD30C,0.0000*%
%ADD31C,0.0039*%
%ADD32R,0.0236X0.0197*%
%ADD33R,0.0295X0.0189*%
D10*
X009200Y003400D03*
X010200Y003400D03*
X011200Y003400D03*
X038200Y014600D03*
X038200Y015600D03*
X038400Y011600D03*
X038400Y010600D03*
X038400Y009600D03*
X038400Y008600D03*
D11*
X037046Y008494D02*
X037046Y007706D01*
X036554Y007706D01*
X036554Y008494D01*
X037046Y008494D01*
X035994Y007646D02*
X035206Y007646D01*
X035206Y007154D01*
X035994Y007154D01*
X035994Y007646D01*
X034446Y007394D02*
X034446Y006606D01*
X033954Y006606D01*
X033954Y007394D01*
X034446Y007394D01*
X033494Y007546D02*
X033494Y007054D01*
X032706Y007054D01*
X032706Y007546D01*
X033494Y007546D01*
X032846Y006244D02*
X032354Y006244D01*
X032354Y005456D01*
X032846Y005456D01*
X032846Y006244D01*
X029246Y006106D02*
X029246Y006894D01*
X028754Y006894D01*
X028754Y006106D01*
X029246Y006106D01*
X028044Y006954D02*
X027256Y006954D01*
X027256Y007446D01*
X028044Y007446D01*
X028044Y006954D01*
X028006Y007754D02*
X028006Y008246D01*
X028794Y008246D01*
X028794Y007754D01*
X028006Y007754D01*
X027394Y007754D02*
X027394Y008246D01*
X026606Y008246D01*
X026606Y007754D01*
X027394Y007754D01*
X026644Y007446D02*
X026644Y006954D01*
X025856Y006954D01*
X025856Y007446D01*
X026644Y007446D01*
X029004Y009856D02*
X029004Y010644D01*
X029496Y010644D01*
X029496Y009856D01*
X029004Y009856D01*
X030806Y010046D02*
X030806Y009554D01*
X031594Y009554D01*
X031594Y010046D01*
X030806Y010046D01*
X030265Y013575D02*
X029965Y013575D01*
X030115Y013575D02*
X030115Y014025D01*
X029965Y013875D01*
X029265Y013875D02*
X029265Y013950D01*
X029190Y014025D01*
X029040Y014025D01*
X028965Y013950D01*
X029265Y013875D02*
X028965Y013575D01*
X029265Y013575D01*
X028265Y013650D02*
X028190Y013575D01*
X028040Y013575D01*
X027965Y013650D01*
X028115Y013800D02*
X028190Y013800D01*
X028265Y013725D01*
X028265Y013650D01*
X028190Y013800D02*
X028265Y013875D01*
X028265Y013950D01*
X028190Y014025D01*
X028040Y014025D01*
X027965Y013950D01*
X027265Y013800D02*
X026965Y013800D01*
X027190Y014025D01*
X027190Y013575D01*
X026265Y013650D02*
X026190Y013575D01*
X026040Y013575D01*
X025965Y013650D01*
X025965Y013800D02*
X026115Y013875D01*
X026190Y013875D01*
X026265Y013800D01*
X026265Y013650D01*
X025965Y013800D02*
X025965Y014025D01*
X026265Y014025D01*
X025265Y014025D02*
X025115Y013950D01*
X024965Y013800D01*
X025190Y013800D01*
X025265Y013725D01*
X025265Y013650D01*
X025190Y013575D01*
X025040Y013575D01*
X024965Y013650D01*
X024965Y013800D01*
X024265Y013950D02*
X024265Y014025D01*
X023965Y014025D01*
X024265Y013950D02*
X023965Y013650D01*
X023965Y013575D01*
X022371Y012852D02*
X022023Y012504D01*
X021466Y013061D01*
X021814Y013409D01*
X022371Y012852D01*
X022706Y015254D02*
X023494Y015254D01*
X023494Y015746D01*
X022706Y015746D01*
X022706Y015254D01*
X022706Y016054D02*
X022706Y016546D01*
X023494Y016546D01*
X023494Y016054D01*
X022706Y016054D01*
X021546Y016606D02*
X021546Y017394D01*
X021054Y017394D01*
X021054Y016606D01*
X021546Y016606D01*
X021954Y017606D02*
X021954Y018394D01*
X022446Y018394D01*
X022446Y017606D01*
X021954Y017606D01*
X019994Y017046D02*
X019994Y016554D01*
X019206Y016554D01*
X019206Y017046D01*
X019994Y017046D01*
X018746Y015994D02*
X018254Y015994D01*
X018254Y015206D01*
X018746Y015206D01*
X018746Y015994D01*
X017846Y015994D02*
X017846Y015206D01*
X017354Y015206D01*
X017354Y015994D01*
X017846Y015994D01*
X017046Y015994D02*
X017046Y015206D01*
X016554Y015206D01*
X016554Y015994D01*
X017046Y015994D01*
X015294Y015954D02*
X014506Y015954D01*
X014506Y016446D01*
X015294Y016446D01*
X015294Y015954D01*
X015294Y015646D02*
X015294Y015154D01*
X014506Y015154D01*
X014506Y015646D01*
X015294Y015646D01*
X013546Y016606D02*
X013546Y017394D01*
X013054Y017394D01*
X013054Y016606D01*
X013546Y016606D01*
X013954Y017606D02*
X013954Y018394D01*
X014446Y018394D01*
X014446Y017606D01*
X013954Y017606D01*
X011894Y017146D02*
X011894Y016654D01*
X011106Y016654D01*
X011106Y017146D01*
X011894Y017146D01*
X010746Y015994D02*
X010254Y015994D01*
X010254Y015206D01*
X010746Y015206D01*
X010746Y015994D01*
X009846Y015994D02*
X009846Y015206D01*
X009354Y015206D01*
X009354Y015994D01*
X009846Y015994D01*
X009046Y015994D02*
X009046Y015206D01*
X008554Y015206D01*
X008554Y015994D01*
X009046Y015994D01*
X007294Y015954D02*
X006506Y015954D01*
X006506Y016446D01*
X007294Y016446D01*
X007294Y015954D01*
X007294Y015646D02*
X007294Y015154D01*
X006506Y015154D01*
X006506Y015646D01*
X007294Y015646D01*
X006446Y017506D02*
X005954Y017506D01*
X005954Y018294D01*
X006446Y018294D01*
X006446Y017506D01*
X005646Y017506D02*
X005646Y018294D01*
X005154Y018294D01*
X005154Y017506D01*
X005646Y017506D01*
X008254Y020706D02*
X008254Y021494D01*
X008746Y021494D01*
X008746Y020706D01*
X008254Y020706D01*
X007594Y020854D02*
X006806Y020854D01*
X006806Y021346D01*
X007594Y021346D01*
X007594Y020854D01*
X009406Y020854D02*
X010194Y020854D01*
X010194Y021346D01*
X009406Y021346D01*
X009406Y020854D01*
X014806Y020854D02*
X014806Y021346D01*
X015594Y021346D01*
X015594Y020854D01*
X014806Y020854D01*
X016254Y020706D02*
X016254Y021494D01*
X016746Y021494D01*
X016746Y020706D01*
X016254Y020706D01*
X017406Y020854D02*
X017406Y021346D01*
X018194Y021346D01*
X018194Y020854D01*
X017406Y020854D01*
X022806Y020854D02*
X022806Y021346D01*
X023594Y021346D01*
X023594Y020854D01*
X022806Y020854D01*
X024254Y020706D02*
X024254Y021494D01*
X024746Y021494D01*
X024746Y020706D01*
X024254Y020706D01*
X025406Y020854D02*
X026194Y020854D01*
X026194Y021346D01*
X025406Y021346D01*
X025406Y020854D01*
X030054Y018594D02*
X030054Y017806D01*
X030546Y017806D01*
X030546Y018594D01*
X030054Y018594D01*
X029546Y017394D02*
X029054Y017394D01*
X029054Y016606D01*
X029546Y016606D01*
X029546Y017394D01*
X028046Y017294D02*
X028046Y016506D01*
X027554Y016506D01*
X027554Y017294D01*
X028046Y017294D01*
X026746Y015994D02*
X026254Y015994D01*
X026254Y015206D01*
X026746Y015206D01*
X026746Y015994D01*
X025846Y015994D02*
X025846Y015206D01*
X025354Y015206D01*
X025354Y015994D01*
X025846Y015994D01*
X025046Y015994D02*
X025046Y015206D01*
X024554Y015206D01*
X024554Y015994D01*
X025046Y015994D01*
X030706Y016054D02*
X030706Y016546D01*
X031494Y016546D01*
X031494Y016054D01*
X030706Y016054D01*
X030706Y015746D02*
X031494Y015746D01*
X031494Y015254D01*
X030706Y015254D01*
X030706Y015746D01*
X032654Y015994D02*
X032654Y015206D01*
X033146Y015206D01*
X033146Y015994D01*
X032654Y015994D01*
X033454Y015994D02*
X033946Y015994D01*
X033946Y015206D01*
X033454Y015206D01*
X033454Y015994D01*
X034304Y015994D02*
X034796Y015994D01*
X034796Y015206D01*
X034304Y015206D01*
X034304Y015994D01*
X035906Y016754D02*
X036694Y016754D01*
X036694Y017246D01*
X035906Y017246D01*
X035906Y016754D01*
X036354Y016194D02*
X036846Y016194D01*
X036846Y015406D01*
X036354Y015406D01*
X036354Y016194D01*
X036921Y018069D02*
X035779Y018069D01*
X035779Y018581D01*
X036921Y018581D01*
X036921Y018069D01*
X032746Y020706D02*
X032746Y021494D01*
X032254Y021494D01*
X032254Y020706D01*
X032746Y020706D01*
X033406Y020854D02*
X034194Y020854D01*
X034194Y021346D01*
X033406Y021346D01*
X033406Y020854D01*
X031594Y020854D02*
X030806Y020854D01*
X030806Y021346D01*
X031594Y021346D01*
X031594Y020854D01*
X015583Y012903D02*
X015026Y012347D01*
X014678Y012695D01*
X015235Y013251D01*
X015583Y012903D01*
X013094Y013554D02*
X012306Y013554D01*
X012306Y014046D01*
X013094Y014046D01*
X013094Y013554D01*
X010794Y013046D02*
X010794Y012554D01*
X010006Y012554D01*
X010006Y013046D01*
X010794Y013046D01*
X010794Y012146D02*
X010006Y012146D01*
X010006Y011654D01*
X010794Y011654D01*
X010794Y012146D01*
X010554Y010694D02*
X010554Y009906D01*
X011046Y009906D01*
X011046Y010694D01*
X010554Y010694D01*
X010296Y010694D02*
X010296Y009906D01*
X009804Y009906D01*
X009804Y010694D01*
X010296Y010694D01*
X011354Y010694D02*
X011354Y009906D01*
X011846Y009906D01*
X011846Y010694D01*
X011354Y010694D01*
X012154Y009994D02*
X012154Y009206D01*
X012646Y009206D01*
X012646Y009994D01*
X012154Y009994D01*
X011097Y008215D02*
X010605Y008215D01*
X010605Y007428D01*
X011097Y007428D01*
X011097Y008215D01*
X012454Y007052D02*
X012802Y006704D01*
X012246Y006148D01*
X011898Y006496D01*
X012454Y007052D01*
X013004Y006502D02*
X013352Y006154D01*
X012796Y005598D01*
X012448Y005946D01*
X013004Y006502D01*
X013448Y005596D02*
X014004Y006152D01*
X014352Y005804D01*
X013796Y005248D01*
X013448Y005596D01*
X017344Y003771D02*
X017856Y003771D01*
X017856Y002629D01*
X017344Y002629D01*
X017344Y003771D01*
X019177Y004434D02*
X019525Y004782D01*
X020082Y004225D01*
X019734Y003877D01*
X019177Y004434D01*
X020046Y005048D02*
X019698Y005396D01*
X020254Y005952D01*
X020602Y005604D01*
X020046Y005048D01*
X020996Y005998D02*
X021552Y006554D01*
X021204Y006902D01*
X020648Y006346D01*
X020996Y005998D01*
X021300Y000225D02*
X021450Y000225D01*
X021525Y000150D01*
X021525Y000075D01*
X021450Y000000D01*
X021525Y-000075D01*
X021525Y-000150D01*
X021450Y-000225D01*
X021300Y-000225D01*
X021225Y-000150D01*
X021375Y000000D02*
X021450Y000000D01*
X021225Y000150D02*
X021300Y000225D01*
X020525Y000150D02*
X020450Y000225D01*
X020300Y000225D01*
X020225Y000150D01*
X020525Y000150D02*
X020525Y000075D01*
X020225Y-000225D01*
X020525Y-000225D01*
X019525Y-000225D02*
X019225Y-000225D01*
X019375Y-000225D02*
X019375Y000225D01*
X019225Y000075D01*
X022225Y000000D02*
X022525Y000000D01*
X022450Y-000225D02*
X022450Y000225D01*
X022225Y000000D01*
X023225Y000000D02*
X023375Y000075D01*
X023450Y000075D01*
X023525Y000000D01*
X023525Y-000150D01*
X023450Y-000225D01*
X023300Y-000225D01*
X023225Y-000150D01*
X023225Y000000D02*
X023225Y000225D01*
X023525Y000225D01*
X024225Y000000D02*
X024450Y000000D01*
X024525Y-000075D01*
X024525Y-000150D01*
X024450Y-000225D01*
X024300Y-000225D01*
X024225Y-000150D01*
X024225Y000000D01*
X024375Y000150D01*
X024525Y000225D01*
X025225Y000225D02*
X025525Y000225D01*
X025525Y000150D01*
X025225Y-000150D01*
X025225Y-000225D01*
X027225Y-000225D02*
X027525Y-000225D01*
X027375Y-000225D02*
X027375Y000225D01*
X027225Y000075D01*
X028225Y000150D02*
X028300Y000225D01*
X028450Y000225D01*
X028525Y000150D01*
X028525Y000075D01*
X028225Y-000225D01*
X028525Y-000225D01*
X029225Y-000150D02*
X029300Y-000225D01*
X029450Y-000225D01*
X029525Y-000150D01*
X029525Y-000075D01*
X029450Y000000D01*
X029375Y000000D01*
X029450Y000000D02*
X029525Y000075D01*
X029525Y000150D01*
X029450Y000225D01*
X029300Y000225D01*
X029225Y000150D01*
X006814Y-000358D02*
X006794Y-000356D01*
X006774Y-000351D01*
X006755Y-000342D01*
X006738Y-000330D01*
X006724Y-000316D01*
X006712Y-000299D01*
X006703Y-000280D01*
X006698Y-000260D01*
X006696Y-000240D01*
X006696Y-000200D01*
X006696Y001729D01*
X003704Y001729D01*
X003704Y-000200D01*
X003704Y-000240D01*
X003702Y-000260D01*
X003697Y-000280D01*
X003688Y-000299D01*
X003676Y-000316D01*
X003662Y-000330D01*
X003645Y-000342D01*
X003626Y-000351D01*
X003606Y-000356D01*
X003586Y-000358D01*
X005304Y008406D02*
X005304Y009194D01*
X005796Y009194D01*
X005796Y008406D01*
X005304Y008406D01*
X005594Y009654D02*
X004806Y009654D01*
X004806Y010146D01*
X005594Y010146D01*
X005594Y009654D01*
D12*
X005515Y009900D03*
X004885Y009900D03*
X010085Y011900D03*
X010715Y011900D03*
X012385Y013800D03*
X013015Y013800D03*
G36*
X021577Y012951D02*
X021466Y013062D01*
X021813Y013409D01*
X021924Y013298D01*
X021577Y012951D01*
G37*
G36*
X022023Y012505D02*
X021912Y012616D01*
X022259Y012963D01*
X022370Y012852D01*
X022023Y012505D01*
G37*
X026685Y008000D03*
X027315Y008000D03*
X027335Y007200D03*
X027965Y007200D03*
X032785Y007300D03*
X033415Y007300D03*
X035985Y017000D03*
X036615Y017000D03*
X034115Y021100D03*
X033485Y021100D03*
X031515Y021100D03*
X030885Y021100D03*
X026115Y021100D03*
X025485Y021100D03*
X023515Y021100D03*
X022885Y021100D03*
X018115Y021100D03*
X017485Y021100D03*
X015515Y021100D03*
X014885Y021100D03*
X010115Y021100D03*
X009485Y021100D03*
X007515Y021100D03*
X006885Y021100D03*
G36*
X012802Y006705D02*
X012691Y006594D01*
X012344Y006941D01*
X012455Y007052D01*
X012802Y006705D01*
G37*
G36*
X013352Y006155D02*
X013241Y006044D01*
X012894Y006391D01*
X013005Y006502D01*
X013352Y006155D01*
G37*
G36*
X012906Y005709D02*
X012795Y005598D01*
X012448Y005945D01*
X012559Y006056D01*
X012906Y005709D01*
G37*
G36*
X012356Y006259D02*
X012245Y006148D01*
X011898Y006495D01*
X012009Y006606D01*
X012356Y006259D01*
G37*
D13*
X010800Y009985D03*
X010050Y009985D03*
X010050Y010615D03*
X010800Y010615D03*
X005550Y009115D03*
X005550Y008485D03*
X008800Y015285D03*
X008800Y015915D03*
X009600Y015915D03*
X009600Y015285D03*
X013300Y016685D03*
X013300Y017315D03*
X016800Y015915D03*
X017600Y015915D03*
X017600Y015285D03*
X016800Y015285D03*
X021300Y016685D03*
X021300Y017315D03*
X024800Y015915D03*
X024800Y015285D03*
X025600Y015285D03*
X025600Y015915D03*
X029300Y016685D03*
X029300Y017315D03*
X032900Y015915D03*
X032900Y015285D03*
X033700Y015285D03*
X033700Y015915D03*
X029250Y010565D03*
X029250Y009935D03*
X034200Y007315D03*
X034200Y006685D03*
X032600Y006165D03*
X032600Y005535D03*
X005400Y017585D03*
X005400Y018215D03*
D14*
X006601Y016200D03*
X007199Y016200D03*
X007199Y015400D03*
X006601Y015400D03*
X010101Y012800D03*
X010699Y012800D03*
G36*
X015159Y012480D02*
X015026Y012347D01*
X014679Y012694D01*
X014812Y012827D01*
X015159Y012480D01*
G37*
G36*
X015582Y012904D02*
X015449Y012771D01*
X015102Y013118D01*
X015235Y013251D01*
X015582Y012904D01*
G37*
X015199Y015400D03*
X014601Y015400D03*
X014601Y016200D03*
X015199Y016200D03*
X011799Y016900D03*
X011201Y016900D03*
X019301Y016800D03*
X019899Y016800D03*
X022801Y016300D03*
X023399Y016300D03*
X023399Y015500D03*
X022801Y015500D03*
X030801Y015500D03*
X031399Y015500D03*
X031399Y016300D03*
X030801Y016300D03*
X030901Y009800D03*
X031499Y009800D03*
X028699Y008000D03*
X028101Y008000D03*
X026549Y007200D03*
X025951Y007200D03*
G36*
X021552Y006555D02*
X021419Y006422D01*
X021072Y006769D01*
X021205Y006902D01*
X021552Y006555D01*
G37*
G36*
X021128Y006131D02*
X020995Y005998D01*
X020648Y006345D01*
X020781Y006478D01*
X021128Y006131D01*
G37*
G36*
X020122Y005819D02*
X020255Y005952D01*
X020602Y005605D01*
X020469Y005472D01*
X020122Y005819D01*
G37*
G36*
X019698Y005395D02*
X019831Y005528D01*
X020178Y005181D01*
X020045Y005048D01*
X019698Y005395D01*
G37*
G36*
X019525Y004781D02*
X019658Y004648D01*
X019311Y004301D01*
X019178Y004434D01*
X019525Y004781D01*
G37*
G36*
X019948Y004358D02*
X020081Y004225D01*
X019734Y003878D01*
X019601Y004011D01*
X019948Y004358D01*
G37*
G36*
X014352Y005805D02*
X014219Y005672D01*
X013872Y006019D01*
X014005Y006152D01*
X014352Y005805D01*
G37*
G36*
X013928Y005381D02*
X013795Y005248D01*
X013448Y005595D01*
X013581Y005728D01*
X013928Y005381D01*
G37*
X035301Y007400D03*
X035899Y007400D03*
D15*
X036800Y007801D03*
X036800Y008399D03*
X029000Y006799D03*
X029000Y006201D03*
X026500Y015301D03*
X026500Y015899D03*
X027800Y016601D03*
X027800Y017199D03*
X030300Y017901D03*
X030300Y018499D03*
X032500Y020801D03*
X032500Y021399D03*
X024500Y021399D03*
X024500Y020801D03*
X022200Y018299D03*
X022200Y017701D03*
X018500Y015899D03*
X018500Y015301D03*
X014200Y017701D03*
X014200Y018299D03*
X010500Y015899D03*
X010500Y015301D03*
X006200Y017601D03*
X006200Y018199D03*
X008500Y020801D03*
X008500Y021399D03*
X016500Y021399D03*
X016500Y020801D03*
X011600Y010599D03*
X011600Y010001D03*
X012400Y009899D03*
X012400Y009301D03*
X010851Y008121D03*
X010851Y007522D03*
X034550Y015301D03*
X034550Y015899D03*
X036600Y016099D03*
X036600Y015501D03*
D16*
G36*
X020928Y009618D02*
X021231Y009921D01*
X021358Y009794D01*
X021055Y009491D01*
X020928Y009618D01*
G37*
G36*
X020706Y009841D02*
X021009Y010144D01*
X021136Y010017D01*
X020833Y009714D01*
X020706Y009841D01*
G37*
G36*
X020483Y010064D02*
X020786Y010367D01*
X020913Y010240D01*
X020610Y009937D01*
X020483Y010064D01*
G37*
G36*
X020260Y010286D02*
X020563Y010589D01*
X020690Y010462D01*
X020387Y010159D01*
X020260Y010286D01*
G37*
G36*
X020038Y010509D02*
X020341Y010812D01*
X020468Y010685D01*
X020165Y010382D01*
X020038Y010509D01*
G37*
G36*
X019815Y010732D02*
X020118Y011035D01*
X020245Y010908D01*
X019942Y010605D01*
X019815Y010732D01*
G37*
G36*
X019592Y010955D02*
X019895Y011258D01*
X020022Y011131D01*
X019719Y010828D01*
X019592Y010955D01*
G37*
G36*
X019369Y011177D02*
X019672Y011480D01*
X019799Y011353D01*
X019496Y011050D01*
X019369Y011177D01*
G37*
G36*
X019147Y011400D02*
X019450Y011703D01*
X019577Y011576D01*
X019274Y011273D01*
X019147Y011400D01*
G37*
G36*
X018924Y011623D02*
X019227Y011926D01*
X019354Y011799D01*
X019051Y011496D01*
X018924Y011623D01*
G37*
G36*
X018701Y011845D02*
X019004Y012148D01*
X019131Y012021D01*
X018828Y011718D01*
X018701Y011845D01*
G37*
G36*
X018479Y012068D02*
X018782Y012371D01*
X018909Y012244D01*
X018606Y011941D01*
X018479Y012068D01*
G37*
G36*
X018256Y012291D02*
X018559Y012594D01*
X018686Y012467D01*
X018383Y012164D01*
X018256Y012291D01*
G37*
G36*
X018033Y012514D02*
X018336Y012817D01*
X018463Y012690D01*
X018160Y012387D01*
X018033Y012514D01*
G37*
G36*
X017810Y012736D02*
X018113Y013039D01*
X018240Y012912D01*
X017937Y012609D01*
X017810Y012736D01*
G37*
G36*
X017588Y012959D02*
X017891Y013262D01*
X018018Y013135D01*
X017715Y012832D01*
X017588Y012959D01*
G37*
G36*
X016982Y012828D02*
X016679Y013131D01*
X016806Y013258D01*
X017109Y012955D01*
X016982Y012828D01*
G37*
G36*
X016759Y012606D02*
X016456Y012909D01*
X016583Y013036D01*
X016886Y012733D01*
X016759Y012606D01*
G37*
G36*
X016536Y012383D02*
X016233Y012686D01*
X016360Y012813D01*
X016663Y012510D01*
X016536Y012383D01*
G37*
G36*
X016314Y012160D02*
X016011Y012463D01*
X016138Y012590D01*
X016441Y012287D01*
X016314Y012160D01*
G37*
G36*
X016091Y011938D02*
X015788Y012241D01*
X015915Y012368D01*
X016218Y012065D01*
X016091Y011938D01*
G37*
G36*
X015868Y011715D02*
X015565Y012018D01*
X015692Y012145D01*
X015995Y011842D01*
X015868Y011715D01*
G37*
G36*
X015645Y011492D02*
X015342Y011795D01*
X015469Y011922D01*
X015772Y011619D01*
X015645Y011492D01*
G37*
G36*
X015423Y011269D02*
X015120Y011572D01*
X015247Y011699D01*
X015550Y011396D01*
X015423Y011269D01*
G37*
G36*
X015200Y011047D02*
X014897Y011350D01*
X015024Y011477D01*
X015327Y011174D01*
X015200Y011047D01*
G37*
G36*
X014977Y010824D02*
X014674Y011127D01*
X014801Y011254D01*
X015104Y010951D01*
X014977Y010824D01*
G37*
G36*
X014755Y010601D02*
X014452Y010904D01*
X014579Y011031D01*
X014882Y010728D01*
X014755Y010601D01*
G37*
G36*
X014532Y010379D02*
X014229Y010682D01*
X014356Y010809D01*
X014659Y010506D01*
X014532Y010379D01*
G37*
G36*
X014309Y010156D02*
X014006Y010459D01*
X014133Y010586D01*
X014436Y010283D01*
X014309Y010156D01*
G37*
G36*
X014086Y009933D02*
X013783Y010236D01*
X013910Y010363D01*
X014213Y010060D01*
X014086Y009933D01*
G37*
G36*
X013864Y009710D02*
X013561Y010013D01*
X013688Y010140D01*
X013991Y009837D01*
X013864Y009710D01*
G37*
G36*
X013641Y009488D02*
X013338Y009791D01*
X013465Y009918D01*
X013768Y009615D01*
X013641Y009488D01*
G37*
G36*
X013772Y008882D02*
X013469Y008579D01*
X013342Y008706D01*
X013645Y009009D01*
X013772Y008882D01*
G37*
G36*
X013994Y008659D02*
X013691Y008356D01*
X013564Y008483D01*
X013867Y008786D01*
X013994Y008659D01*
G37*
G36*
X014217Y008436D02*
X013914Y008133D01*
X013787Y008260D01*
X014090Y008563D01*
X014217Y008436D01*
G37*
G36*
X014440Y008214D02*
X014137Y007911D01*
X014010Y008038D01*
X014313Y008341D01*
X014440Y008214D01*
G37*
G36*
X014662Y007991D02*
X014359Y007688D01*
X014232Y007815D01*
X014535Y008118D01*
X014662Y007991D01*
G37*
G36*
X014885Y007768D02*
X014582Y007465D01*
X014455Y007592D01*
X014758Y007895D01*
X014885Y007768D01*
G37*
G36*
X015108Y007545D02*
X014805Y007242D01*
X014678Y007369D01*
X014981Y007672D01*
X015108Y007545D01*
G37*
G36*
X015331Y007323D02*
X015028Y007020D01*
X014901Y007147D01*
X015204Y007450D01*
X015331Y007323D01*
G37*
G36*
X015553Y007100D02*
X015250Y006797D01*
X015123Y006924D01*
X015426Y007227D01*
X015553Y007100D01*
G37*
G36*
X015776Y006877D02*
X015473Y006574D01*
X015346Y006701D01*
X015649Y007004D01*
X015776Y006877D01*
G37*
G36*
X015999Y006655D02*
X015696Y006352D01*
X015569Y006479D01*
X015872Y006782D01*
X015999Y006655D01*
G37*
G36*
X016221Y006432D02*
X015918Y006129D01*
X015791Y006256D01*
X016094Y006559D01*
X016221Y006432D01*
G37*
G36*
X016444Y006209D02*
X016141Y005906D01*
X016014Y006033D01*
X016317Y006336D01*
X016444Y006209D01*
G37*
G36*
X016667Y005986D02*
X016364Y005683D01*
X016237Y005810D01*
X016540Y006113D01*
X016667Y005986D01*
G37*
G36*
X016890Y005764D02*
X016587Y005461D01*
X016460Y005588D01*
X016763Y005891D01*
X016890Y005764D01*
G37*
G36*
X017112Y005541D02*
X016809Y005238D01*
X016682Y005365D01*
X016985Y005668D01*
X017112Y005541D01*
G37*
G36*
X017718Y005672D02*
X018021Y005369D01*
X017894Y005242D01*
X017591Y005545D01*
X017718Y005672D01*
G37*
G36*
X017941Y005894D02*
X018244Y005591D01*
X018117Y005464D01*
X017814Y005767D01*
X017941Y005894D01*
G37*
G36*
X018164Y006117D02*
X018467Y005814D01*
X018340Y005687D01*
X018037Y005990D01*
X018164Y006117D01*
G37*
G36*
X018386Y006340D02*
X018689Y006037D01*
X018562Y005910D01*
X018259Y006213D01*
X018386Y006340D01*
G37*
G36*
X018609Y006562D02*
X018912Y006259D01*
X018785Y006132D01*
X018482Y006435D01*
X018609Y006562D01*
G37*
G36*
X018832Y006785D02*
X019135Y006482D01*
X019008Y006355D01*
X018705Y006658D01*
X018832Y006785D01*
G37*
G36*
X019055Y007008D02*
X019358Y006705D01*
X019231Y006578D01*
X018928Y006881D01*
X019055Y007008D01*
G37*
G36*
X019277Y007231D02*
X019580Y006928D01*
X019453Y006801D01*
X019150Y007104D01*
X019277Y007231D01*
G37*
G36*
X019500Y007453D02*
X019803Y007150D01*
X019676Y007023D01*
X019373Y007326D01*
X019500Y007453D01*
G37*
G36*
X019723Y007676D02*
X020026Y007373D01*
X019899Y007246D01*
X019596Y007549D01*
X019723Y007676D01*
G37*
G36*
X019945Y007899D02*
X020248Y007596D01*
X020121Y007469D01*
X019818Y007772D01*
X019945Y007899D01*
G37*
G36*
X020168Y008121D02*
X020471Y007818D01*
X020344Y007691D01*
X020041Y007994D01*
X020168Y008121D01*
G37*
G36*
X020391Y008344D02*
X020694Y008041D01*
X020567Y007914D01*
X020264Y008217D01*
X020391Y008344D01*
G37*
G36*
X020614Y008567D02*
X020917Y008264D01*
X020790Y008137D01*
X020487Y008440D01*
X020614Y008567D01*
G37*
G36*
X020836Y008790D02*
X021139Y008487D01*
X021012Y008360D01*
X020709Y008663D01*
X020836Y008790D01*
G37*
G36*
X021059Y009012D02*
X021362Y008709D01*
X021235Y008582D01*
X020932Y008885D01*
X021059Y009012D01*
G37*
D17*
X035976Y017921D03*
X035976Y017921D03*
X036724Y017921D03*
X036724Y017921D03*
X036350Y018729D03*
X036350Y018729D03*
D18*
G36*
X021235Y012456D02*
X021376Y012315D01*
X021235Y012174D01*
X021094Y012315D01*
X021235Y012456D01*
G37*
G36*
X020528Y013163D02*
X020669Y013022D01*
X020528Y012881D01*
X020387Y013022D01*
X020528Y013163D01*
G37*
D19*
X029854Y010427D02*
X029854Y010073D01*
X030346Y010063D02*
X030346Y010427D01*
X029110Y020020D02*
X027890Y020020D01*
X027220Y020690D01*
X027220Y022580D01*
X029780Y022580D01*
X029780Y020690D01*
X029110Y020020D01*
X027280Y021300D02*
X027282Y021370D01*
X027288Y021439D01*
X027298Y021508D01*
X027312Y021576D01*
X027329Y021644D01*
X027351Y021710D01*
X027376Y021775D01*
X027405Y021838D01*
X027438Y021900D01*
X027474Y021960D01*
X027513Y022017D01*
X027556Y022072D01*
X027601Y022125D01*
X027650Y022175D01*
X027701Y022222D01*
X027755Y022266D01*
X027811Y022307D01*
X027870Y022345D01*
X027931Y022379D01*
X027993Y022410D01*
X028057Y022437D01*
X028123Y022460D01*
X028190Y022480D01*
X028258Y022496D01*
X028326Y022508D01*
X028396Y022516D01*
X028465Y022520D01*
X028535Y022520D01*
X028604Y022516D01*
X028674Y022508D01*
X028742Y022496D01*
X028810Y022480D01*
X028877Y022460D01*
X028943Y022437D01*
X029007Y022410D01*
X029069Y022379D01*
X029130Y022345D01*
X029189Y022307D01*
X029245Y022266D01*
X029299Y022222D01*
X029350Y022175D01*
X029399Y022125D01*
X029444Y022072D01*
X029487Y022017D01*
X029526Y021960D01*
X029562Y021900D01*
X029595Y021838D01*
X029624Y021775D01*
X029649Y021710D01*
X029671Y021644D01*
X029688Y021576D01*
X029702Y021508D01*
X029712Y021439D01*
X029718Y021370D01*
X029720Y021300D01*
X029718Y021230D01*
X029712Y021161D01*
X029702Y021092D01*
X029688Y021024D01*
X029671Y020956D01*
X029649Y020890D01*
X029624Y020825D01*
X029595Y020762D01*
X029562Y020700D01*
X029526Y020640D01*
X029487Y020583D01*
X029444Y020528D01*
X029399Y020475D01*
X029350Y020425D01*
X029299Y020378D01*
X029245Y020334D01*
X029189Y020293D01*
X029130Y020255D01*
X029069Y020221D01*
X029007Y020190D01*
X028943Y020163D01*
X028877Y020140D01*
X028810Y020120D01*
X028742Y020104D01*
X028674Y020092D01*
X028604Y020084D01*
X028535Y020080D01*
X028465Y020080D01*
X028396Y020084D01*
X028326Y020092D01*
X028258Y020104D01*
X028190Y020120D01*
X028123Y020140D01*
X028057Y020163D01*
X027993Y020190D01*
X027931Y020221D01*
X027870Y020255D01*
X027811Y020293D01*
X027755Y020334D01*
X027701Y020378D01*
X027650Y020425D01*
X027601Y020475D01*
X027556Y020528D01*
X027513Y020583D01*
X027474Y020640D01*
X027438Y020700D01*
X027405Y020762D01*
X027376Y020825D01*
X027351Y020890D01*
X027329Y020956D01*
X027312Y021024D01*
X027298Y021092D01*
X027288Y021161D01*
X027282Y021230D01*
X027280Y021300D01*
X027634Y022127D02*
X029386Y022127D01*
X029346Y022146D02*
X029327Y022146D01*
X027654Y022146D01*
X027850Y022304D01*
X028126Y022442D01*
X028500Y022501D01*
X028854Y022442D01*
X029130Y022324D01*
X029346Y022146D01*
X029310Y022176D02*
X027691Y022176D01*
X027739Y022215D02*
X029263Y022215D01*
X029216Y022253D02*
X027787Y022253D01*
X027835Y022292D02*
X029169Y022292D01*
X029115Y022330D02*
X027903Y022330D01*
X027980Y022369D02*
X029025Y022369D01*
X028935Y022407D02*
X028057Y022407D01*
X028151Y022446D02*
X028831Y022446D01*
X028600Y022484D02*
X028395Y022484D01*
X021880Y022580D02*
X021880Y020690D01*
X021210Y020020D01*
X019990Y020020D01*
X019320Y020690D01*
X019320Y022580D01*
X021880Y022580D01*
X021486Y022127D02*
X019734Y022127D01*
X019754Y022146D02*
X021427Y022146D01*
X021446Y022146D01*
X021230Y022324D01*
X020954Y022442D01*
X020600Y022501D01*
X020226Y022442D01*
X019950Y022304D01*
X019754Y022146D01*
X019791Y022176D02*
X021410Y022176D01*
X021363Y022215D02*
X019839Y022215D01*
X019887Y022253D02*
X021316Y022253D01*
X021269Y022292D02*
X019935Y022292D01*
X020003Y022330D02*
X021215Y022330D01*
X021125Y022369D02*
X020080Y022369D01*
X020157Y022407D02*
X021035Y022407D01*
X020931Y022446D02*
X020251Y022446D01*
X020495Y022484D02*
X020700Y022484D01*
X019380Y021300D02*
X019382Y021370D01*
X019388Y021439D01*
X019398Y021508D01*
X019412Y021576D01*
X019429Y021644D01*
X019451Y021710D01*
X019476Y021775D01*
X019505Y021838D01*
X019538Y021900D01*
X019574Y021960D01*
X019613Y022017D01*
X019656Y022072D01*
X019701Y022125D01*
X019750Y022175D01*
X019801Y022222D01*
X019855Y022266D01*
X019911Y022307D01*
X019970Y022345D01*
X020031Y022379D01*
X020093Y022410D01*
X020157Y022437D01*
X020223Y022460D01*
X020290Y022480D01*
X020358Y022496D01*
X020426Y022508D01*
X020496Y022516D01*
X020565Y022520D01*
X020635Y022520D01*
X020704Y022516D01*
X020774Y022508D01*
X020842Y022496D01*
X020910Y022480D01*
X020977Y022460D01*
X021043Y022437D01*
X021107Y022410D01*
X021169Y022379D01*
X021230Y022345D01*
X021289Y022307D01*
X021345Y022266D01*
X021399Y022222D01*
X021450Y022175D01*
X021499Y022125D01*
X021544Y022072D01*
X021587Y022017D01*
X021626Y021960D01*
X021662Y021900D01*
X021695Y021838D01*
X021724Y021775D01*
X021749Y021710D01*
X021771Y021644D01*
X021788Y021576D01*
X021802Y021508D01*
X021812Y021439D01*
X021818Y021370D01*
X021820Y021300D01*
X021818Y021230D01*
X021812Y021161D01*
X021802Y021092D01*
X021788Y021024D01*
X021771Y020956D01*
X021749Y020890D01*
X021724Y020825D01*
X021695Y020762D01*
X021662Y020700D01*
X021626Y020640D01*
X021587Y020583D01*
X021544Y020528D01*
X021499Y020475D01*
X021450Y020425D01*
X021399Y020378D01*
X021345Y020334D01*
X021289Y020293D01*
X021230Y020255D01*
X021169Y020221D01*
X021107Y020190D01*
X021043Y020163D01*
X020977Y020140D01*
X020910Y020120D01*
X020842Y020104D01*
X020774Y020092D01*
X020704Y020084D01*
X020635Y020080D01*
X020565Y020080D01*
X020496Y020084D01*
X020426Y020092D01*
X020358Y020104D01*
X020290Y020120D01*
X020223Y020140D01*
X020157Y020163D01*
X020093Y020190D01*
X020031Y020221D01*
X019970Y020255D01*
X019911Y020293D01*
X019855Y020334D01*
X019801Y020378D01*
X019750Y020425D01*
X019701Y020475D01*
X019656Y020528D01*
X019613Y020583D01*
X019574Y020640D01*
X019538Y020700D01*
X019505Y020762D01*
X019476Y020825D01*
X019451Y020890D01*
X019429Y020956D01*
X019412Y021024D01*
X019398Y021092D01*
X019388Y021161D01*
X019382Y021230D01*
X019380Y021300D01*
X013780Y020690D02*
X013110Y020020D01*
X011890Y020020D01*
X011220Y020690D01*
X011220Y022580D01*
X013780Y022580D01*
X013780Y020690D01*
X011280Y021300D02*
X011282Y021370D01*
X011288Y021439D01*
X011298Y021508D01*
X011312Y021576D01*
X011329Y021644D01*
X011351Y021710D01*
X011376Y021775D01*
X011405Y021838D01*
X011438Y021900D01*
X011474Y021960D01*
X011513Y022017D01*
X011556Y022072D01*
X011601Y022125D01*
X011650Y022175D01*
X011701Y022222D01*
X011755Y022266D01*
X011811Y022307D01*
X011870Y022345D01*
X011931Y022379D01*
X011993Y022410D01*
X012057Y022437D01*
X012123Y022460D01*
X012190Y022480D01*
X012258Y022496D01*
X012326Y022508D01*
X012396Y022516D01*
X012465Y022520D01*
X012535Y022520D01*
X012604Y022516D01*
X012674Y022508D01*
X012742Y022496D01*
X012810Y022480D01*
X012877Y022460D01*
X012943Y022437D01*
X013007Y022410D01*
X013069Y022379D01*
X013130Y022345D01*
X013189Y022307D01*
X013245Y022266D01*
X013299Y022222D01*
X013350Y022175D01*
X013399Y022125D01*
X013444Y022072D01*
X013487Y022017D01*
X013526Y021960D01*
X013562Y021900D01*
X013595Y021838D01*
X013624Y021775D01*
X013649Y021710D01*
X013671Y021644D01*
X013688Y021576D01*
X013702Y021508D01*
X013712Y021439D01*
X013718Y021370D01*
X013720Y021300D01*
X013718Y021230D01*
X013712Y021161D01*
X013702Y021092D01*
X013688Y021024D01*
X013671Y020956D01*
X013649Y020890D01*
X013624Y020825D01*
X013595Y020762D01*
X013562Y020700D01*
X013526Y020640D01*
X013487Y020583D01*
X013444Y020528D01*
X013399Y020475D01*
X013350Y020425D01*
X013299Y020378D01*
X013245Y020334D01*
X013189Y020293D01*
X013130Y020255D01*
X013069Y020221D01*
X013007Y020190D01*
X012943Y020163D01*
X012877Y020140D01*
X012810Y020120D01*
X012742Y020104D01*
X012674Y020092D01*
X012604Y020084D01*
X012535Y020080D01*
X012465Y020080D01*
X012396Y020084D01*
X012326Y020092D01*
X012258Y020104D01*
X012190Y020120D01*
X012123Y020140D01*
X012057Y020163D01*
X011993Y020190D01*
X011931Y020221D01*
X011870Y020255D01*
X011811Y020293D01*
X011755Y020334D01*
X011701Y020378D01*
X011650Y020425D01*
X011601Y020475D01*
X011556Y020528D01*
X011513Y020583D01*
X011474Y020640D01*
X011438Y020700D01*
X011405Y020762D01*
X011376Y020825D01*
X011351Y020890D01*
X011329Y020956D01*
X011312Y021024D01*
X011298Y021092D01*
X011288Y021161D01*
X011282Y021230D01*
X011280Y021300D01*
X011634Y022127D02*
X013386Y022127D01*
X013346Y022146D02*
X013327Y022146D01*
X011654Y022146D01*
X011850Y022304D01*
X012126Y022442D01*
X012500Y022501D01*
X012854Y022442D01*
X013130Y022324D01*
X013346Y022146D01*
X013310Y022176D02*
X011691Y022176D01*
X011739Y022215D02*
X013263Y022215D01*
X013216Y022253D02*
X011787Y022253D01*
X011835Y022292D02*
X013169Y022292D01*
X013115Y022330D02*
X011903Y022330D01*
X011980Y022369D02*
X013025Y022369D01*
X012935Y022407D02*
X012057Y022407D01*
X012151Y022446D02*
X012831Y022446D01*
X012600Y022484D02*
X012395Y022484D01*
X005580Y022580D02*
X005580Y020690D01*
X004910Y020020D01*
X003690Y020020D01*
X003020Y020690D01*
X003020Y022580D01*
X005580Y022580D01*
X005186Y022127D02*
X003434Y022127D01*
X003454Y022146D02*
X005127Y022146D01*
X005146Y022146D01*
X004930Y022324D01*
X004654Y022442D01*
X004300Y022501D01*
X003926Y022442D01*
X003650Y022304D01*
X003454Y022146D01*
X003491Y022176D02*
X005110Y022176D01*
X005063Y022215D02*
X003539Y022215D01*
X003587Y022253D02*
X005016Y022253D01*
X004969Y022292D02*
X003635Y022292D01*
X003703Y022330D02*
X004915Y022330D01*
X004825Y022369D02*
X003780Y022369D01*
X003857Y022407D02*
X004735Y022407D01*
X004631Y022446D02*
X003951Y022446D01*
X004195Y022484D02*
X004400Y022484D01*
X003080Y021300D02*
X003082Y021370D01*
X003088Y021439D01*
X003098Y021508D01*
X003112Y021576D01*
X003129Y021644D01*
X003151Y021710D01*
X003176Y021775D01*
X003205Y021838D01*
X003238Y021900D01*
X003274Y021960D01*
X003313Y022017D01*
X003356Y022072D01*
X003401Y022125D01*
X003450Y022175D01*
X003501Y022222D01*
X003555Y022266D01*
X003611Y022307D01*
X003670Y022345D01*
X003731Y022379D01*
X003793Y022410D01*
X003857Y022437D01*
X003923Y022460D01*
X003990Y022480D01*
X004058Y022496D01*
X004126Y022508D01*
X004196Y022516D01*
X004265Y022520D01*
X004335Y022520D01*
X004404Y022516D01*
X004474Y022508D01*
X004542Y022496D01*
X004610Y022480D01*
X004677Y022460D01*
X004743Y022437D01*
X004807Y022410D01*
X004869Y022379D01*
X004930Y022345D01*
X004989Y022307D01*
X005045Y022266D01*
X005099Y022222D01*
X005150Y022175D01*
X005199Y022125D01*
X005244Y022072D01*
X005287Y022017D01*
X005326Y021960D01*
X005362Y021900D01*
X005395Y021838D01*
X005424Y021775D01*
X005449Y021710D01*
X005471Y021644D01*
X005488Y021576D01*
X005502Y021508D01*
X005512Y021439D01*
X005518Y021370D01*
X005520Y021300D01*
X005518Y021230D01*
X005512Y021161D01*
X005502Y021092D01*
X005488Y021024D01*
X005471Y020956D01*
X005449Y020890D01*
X005424Y020825D01*
X005395Y020762D01*
X005362Y020700D01*
X005326Y020640D01*
X005287Y020583D01*
X005244Y020528D01*
X005199Y020475D01*
X005150Y020425D01*
X005099Y020378D01*
X005045Y020334D01*
X004989Y020293D01*
X004930Y020255D01*
X004869Y020221D01*
X004807Y020190D01*
X004743Y020163D01*
X004677Y020140D01*
X004610Y020120D01*
X004542Y020104D01*
X004474Y020092D01*
X004404Y020084D01*
X004335Y020080D01*
X004265Y020080D01*
X004196Y020084D01*
X004126Y020092D01*
X004058Y020104D01*
X003990Y020120D01*
X003923Y020140D01*
X003857Y020163D01*
X003793Y020190D01*
X003731Y020221D01*
X003670Y020255D01*
X003611Y020293D01*
X003555Y020334D01*
X003501Y020378D01*
X003450Y020425D01*
X003401Y020475D01*
X003356Y020528D01*
X003313Y020583D01*
X003274Y020640D01*
X003238Y020700D01*
X003205Y020762D01*
X003176Y020825D01*
X003151Y020890D01*
X003129Y020956D01*
X003112Y021024D01*
X003098Y021092D01*
X003088Y021161D01*
X003082Y021230D01*
X003080Y021300D01*
X005790Y013680D02*
X007680Y013680D01*
X007680Y011120D01*
X005790Y011120D01*
X005120Y011790D01*
X005120Y013010D01*
X005790Y013680D01*
X007227Y013266D02*
X007227Y011514D01*
X007246Y011554D02*
X007246Y011573D01*
X007246Y013246D01*
X007404Y013050D01*
X007542Y012774D01*
X007601Y012400D01*
X007542Y012046D01*
X007424Y011770D01*
X007246Y011554D01*
X007246Y011589D02*
X007275Y011589D01*
X007246Y011627D02*
X007307Y011627D01*
X007338Y011666D02*
X007246Y011666D01*
X007246Y011704D02*
X007370Y011704D01*
X007401Y011743D02*
X007246Y011743D01*
X007246Y011781D02*
X007428Y011781D01*
X007445Y011820D02*
X007246Y011820D01*
X007246Y011858D02*
X007461Y011858D01*
X007478Y011897D02*
X007246Y011897D01*
X007246Y011935D02*
X007494Y011935D01*
X007511Y011974D02*
X007246Y011974D01*
X007246Y012012D02*
X007527Y012012D01*
X007543Y012051D02*
X007246Y012051D01*
X007246Y012089D02*
X007549Y012089D01*
X007555Y012128D02*
X007246Y012128D01*
X007246Y012166D02*
X007562Y012166D01*
X007568Y012205D02*
X007246Y012205D01*
X007246Y012243D02*
X007575Y012243D01*
X007581Y012282D02*
X007246Y012282D01*
X007246Y012320D02*
X007587Y012320D01*
X007594Y012359D02*
X007246Y012359D01*
X007246Y012397D02*
X007600Y012397D01*
X007595Y012436D02*
X007246Y012436D01*
X007246Y012474D02*
X007589Y012474D01*
X007583Y012513D02*
X007246Y012513D01*
X007246Y012551D02*
X007577Y012551D01*
X007571Y012590D02*
X007246Y012590D01*
X007246Y012628D02*
X007565Y012628D01*
X007559Y012667D02*
X007246Y012667D01*
X007246Y012705D02*
X007553Y012705D01*
X007547Y012744D02*
X007246Y012744D01*
X007246Y012782D02*
X007538Y012782D01*
X007518Y012821D02*
X007246Y012821D01*
X007246Y012859D02*
X007499Y012859D01*
X007480Y012898D02*
X007246Y012898D01*
X007246Y012936D02*
X007461Y012936D01*
X007441Y012975D02*
X007246Y012975D01*
X007246Y013013D02*
X007422Y013013D01*
X007402Y013052D02*
X007246Y013052D01*
X007246Y013090D02*
X007372Y013090D01*
X007341Y013129D02*
X007246Y013129D01*
X007246Y013167D02*
X007310Y013167D01*
X007279Y013206D02*
X007246Y013206D01*
X007246Y013244D02*
X007248Y013244D01*
X005180Y012400D02*
X005182Y012470D01*
X005188Y012539D01*
X005198Y012608D01*
X005212Y012676D01*
X005229Y012744D01*
X005251Y012810D01*
X005276Y012875D01*
X005305Y012938D01*
X005338Y013000D01*
X005374Y013060D01*
X005413Y013117D01*
X005456Y013172D01*
X005501Y013225D01*
X005550Y013275D01*
X005601Y013322D01*
X005655Y013366D01*
X005711Y013407D01*
X005770Y013445D01*
X005831Y013479D01*
X005893Y013510D01*
X005957Y013537D01*
X006023Y013560D01*
X006090Y013580D01*
X006158Y013596D01*
X006226Y013608D01*
X006296Y013616D01*
X006365Y013620D01*
X006435Y013620D01*
X006504Y013616D01*
X006574Y013608D01*
X006642Y013596D01*
X006710Y013580D01*
X006777Y013560D01*
X006843Y013537D01*
X006907Y013510D01*
X006969Y013479D01*
X007030Y013445D01*
X007089Y013407D01*
X007145Y013366D01*
X007199Y013322D01*
X007250Y013275D01*
X007299Y013225D01*
X007344Y013172D01*
X007387Y013117D01*
X007426Y013060D01*
X007462Y013000D01*
X007495Y012938D01*
X007524Y012875D01*
X007549Y012810D01*
X007571Y012744D01*
X007588Y012676D01*
X007602Y012608D01*
X007612Y012539D01*
X007618Y012470D01*
X007620Y012400D01*
X007618Y012330D01*
X007612Y012261D01*
X007602Y012192D01*
X007588Y012124D01*
X007571Y012056D01*
X007549Y011990D01*
X007524Y011925D01*
X007495Y011862D01*
X007462Y011800D01*
X007426Y011740D01*
X007387Y011683D01*
X007344Y011628D01*
X007299Y011575D01*
X007250Y011525D01*
X007199Y011478D01*
X007145Y011434D01*
X007089Y011393D01*
X007030Y011355D01*
X006969Y011321D01*
X006907Y011290D01*
X006843Y011263D01*
X006777Y011240D01*
X006710Y011220D01*
X006642Y011204D01*
X006574Y011192D01*
X006504Y011184D01*
X006435Y011180D01*
X006365Y011180D01*
X006296Y011184D01*
X006226Y011192D01*
X006158Y011204D01*
X006090Y011220D01*
X006023Y011240D01*
X005957Y011263D01*
X005893Y011290D01*
X005831Y011321D01*
X005770Y011355D01*
X005711Y011393D01*
X005655Y011434D01*
X005601Y011478D01*
X005550Y011525D01*
X005501Y011575D01*
X005456Y011628D01*
X005413Y011683D01*
X005374Y011740D01*
X005338Y011800D01*
X005305Y011862D01*
X005276Y011925D01*
X005251Y011990D01*
X005229Y012056D01*
X005212Y012124D01*
X005198Y012192D01*
X005188Y012261D01*
X005182Y012330D01*
X005180Y012400D01*
D20*
X030100Y010545D03*
X030100Y009955D03*
D21*
X032214Y008992D02*
X032214Y008008D01*
X033986Y008008D02*
X033986Y008992D01*
X036314Y019908D02*
X036314Y020892D01*
X038086Y020892D02*
X038086Y019908D01*
X003334Y007716D02*
X003334Y007449D01*
X003334Y007582D02*
X002934Y007582D01*
X003067Y007449D01*
D22*
X032080Y008505D03*
X036180Y020405D03*
D23*
X038220Y020400D03*
X034120Y008500D03*
D24*
X033543Y008500D03*
X037643Y020400D03*
D25*
X028500Y019981D03*
X028500Y022619D03*
X020600Y022619D03*
X020600Y019981D03*
X012500Y019981D03*
X012500Y022619D03*
X004300Y022619D03*
X004300Y019981D03*
D26*
X006693Y004060D02*
X006693Y002940D01*
X007307Y002940D02*
X007307Y004060D01*
X029940Y006140D02*
X031060Y006140D01*
X031060Y006660D01*
X029940Y006660D01*
X029940Y006140D01*
D27*
X030500Y006005D03*
X030130Y006795D03*
X030870Y006795D03*
D28*
X029400Y001900D03*
X028400Y001900D03*
X027400Y001900D03*
X027400Y000900D03*
X028400Y000900D03*
X029400Y000900D03*
X025400Y000900D03*
X024400Y000900D03*
X023400Y000900D03*
X022400Y000900D03*
X021400Y000900D03*
X020400Y000900D03*
X019400Y000900D03*
X019400Y001900D03*
X020400Y001900D03*
X021400Y001900D03*
X022400Y001900D03*
X023400Y001900D03*
X024400Y001900D03*
X025400Y001900D03*
X025200Y011900D03*
X026200Y011900D03*
X026200Y012900D03*
X025200Y012900D03*
X024200Y012900D03*
X024200Y011900D03*
X027200Y011900D03*
X028200Y011900D03*
X028200Y012900D03*
X027200Y012900D03*
X029200Y012900D03*
X030200Y012900D03*
X030200Y011900D03*
X029200Y011900D03*
D29*
X007719Y012400D03*
X005081Y012400D03*
D30*
X007011Y000016D02*
X003074Y000016D01*
D31*
X003704Y-000200D02*
X003822Y-000200D01*
X003822Y-000358D01*
X006578Y-000358D01*
X006578Y-000200D01*
X006696Y-000200D01*
D32*
X006567Y003126D03*
X006567Y003500D03*
X006567Y003874D03*
X007433Y003874D03*
X007433Y003500D03*
X007433Y003126D03*
D33*
X017196Y002826D03*
X017196Y002826D03*
X018004Y003200D03*
X018004Y003200D03*
X017196Y003574D03*
X017196Y003574D03*
M02*
