%
M48
M72
T01C0.0120
T02C0.0197
T03C0.0217
T04C0.0360
T05C0.0400
T06C0.0551
T07C0.1450
%
T01
X6700Y2600
X7100Y2200
X6000Y3400
X7900Y3550
X10800Y6650
X11500Y7700
X12000Y8200
X12400Y8700
X11250Y9300
X9800Y8100
X9000Y7650
X13250Y10300
X14100Y9600
X14446Y11496
X14800Y11900
X14500Y12200
X14100Y12300
X13500Y11600
X12800Y11900
X14200Y13200
X14600Y13200
X14850Y13525
X13900Y13900
X13600Y13600
X12700Y14800
X13400Y15300
X11500Y16300
X11200Y15300
X9600Y14700
X11400Y13900
X10800Y13400
X10050Y13450
X8250Y12400
X7350Y11850
X5700Y11800
X5200Y11800
X4700Y11800
X4700Y13000
X5200Y13000
X5700Y13000
X6193Y14200
X7350Y13000
X6300Y16900
X6900Y18000
X6900Y18300
X6900Y18600
X6900Y18900
X7300Y18900
X7300Y18600
X7300Y18300
X7300Y18000
X7900Y18000
X8500Y18000
X8500Y18600
X7900Y18600
X9100Y18600
X9700Y18600
X9700Y18300
X9700Y18000
X9700Y17700
X10100Y17700
X10100Y18000
X10100Y18300
X10100Y18600
X10100Y18900
X9700Y18900
X9100Y18000
X6650Y19600
X6950Y20550
X7250Y20550
X8500Y20400
X9750Y20550
X10050Y20550
X10200Y21700
X9800Y21700
X8500Y22000
X7200Y21700
X6800Y21700
X4900Y21700
X4900Y22200
X4900Y22700
X3700Y22700
X3700Y22200
X3700Y21700
X3700Y20900
X3700Y20350
X3700Y19800
X4900Y19800
X4900Y20350
X4900Y20900
X11800Y21800
X11800Y22300
X11800Y22800
X13100Y22800
X13100Y22300
X13100Y21800
X13100Y20900
X13100Y20350
X13100Y19800
X11900Y19800
X11900Y20350
X11900Y20900
X14700Y19600
X14900Y18900
X14900Y18600
X14900Y18300
X14900Y18000
X15300Y18000
X15300Y18300
X15300Y18600
X15300Y18900
X15900Y18600
X15900Y18000
X16500Y18000
X17100Y18000
X17100Y18600
X16500Y18600
X17700Y18600
X17700Y18300
X17700Y18000
X17700Y17700
X18100Y17700
X18100Y18000
X18100Y18300
X18100Y18600
X18100Y18900
X17700Y18900
X20000Y19800
X20000Y20350
X20000Y20900
X19950Y21750
X19950Y22250
X19950Y22750
X21250Y22750
X21250Y22250
X21250Y21750
X21200Y20900
X21200Y20350
X21200Y19800
X22700Y19600
X22900Y18900
X22900Y18600
X22900Y18300
X22900Y18000
X23300Y18000
X23300Y18300
X23300Y18600
X23300Y18900
X23800Y18600
X23800Y18000
X24500Y18000
X24500Y18600
X25200Y18600
X25700Y18600
X25700Y18300
X25700Y18000
X25700Y17700
X26100Y17700
X26100Y18000
X26100Y18300
X26100Y18600
X26100Y18900
X25700Y18900
X25200Y18000
X27900Y19800
X27900Y20350
X27900Y20900
X27850Y21750
X27850Y22250
X27850Y22750
X29150Y22750
X29150Y22250
X29150Y21750
X29100Y20900
X29100Y20350
X29100Y19800
X30600Y19600
X30900Y18900
X30900Y18600
X30900Y18300
X30900Y18000
X31300Y18000
X31300Y18300
X31300Y18600
X31300Y18900
X31800Y18600
X32500Y18600
X32500Y18000
X31800Y18000
X33200Y18000
X33700Y18000
X33700Y17700
X34100Y17700
X34100Y18000
X34100Y18300
X34100Y18600
X34100Y18900
X33700Y18900
X33700Y18600
X33700Y18300
X33200Y18600
X35500Y18350
X35500Y18050
X36800Y18850
X39000Y17200
X39000Y16900
X36000Y16400
X35400Y17000
X35150Y15850
X35000Y14500
X32600Y14750
X30250Y15500
X29300Y15200
X28636Y14419
X27900Y14900
X27100Y15100
X27200Y15600
X22800Y13000
X22300Y12050
X20100Y11900
X19800Y12400
X18600Y10850
X18000Y10500
X17400Y10000
X18900Y9700
X19600Y10100
X20000Y9400
X19700Y9100
X20000Y8700
X19600Y8400
X19600Y8000
X19100Y7900
X18600Y7800
X18550Y6950
X18100Y6500
X17500Y6400
X17100Y6400
X19100Y5100
X18000Y4800
X17200Y4400
X18000Y4200
X19200Y3600
X19200Y3000
X20400Y3750
X21400Y3700
X21700Y4000
X22100Y4650
X23100Y5200
X23300Y4850
X23700Y4800
X24300Y5400
X25100Y6000
X25400Y5300
X26600Y6000
X28000Y5700
X28900Y5050
X29200Y4600
X30700Y4300
X30600Y3900
X30900Y4600
X31400Y5000
X31500Y6200
X32200Y7300
X31600Y8500
X31700Y9200
X31400Y9200
X30800Y9100
X30800Y10500
X31400Y10400
X31700Y10400
X33000Y8500
X34550Y8750
X34550Y8200
X37400Y7700
X34200Y6100
X35151Y4749
X30200Y2800
X29900Y3200
X28400Y3400
X26900Y4500
X32800Y1200
X33800Y1200
X27400Y8600
X20250Y6400
X19350Y6200
X16100Y4700
X14250Y7300
X16350Y11850
X15250Y12150
X17350Y12550
X18500Y13900
X17600Y14200
X16250Y15150
X14300Y17000
X16500Y20400
X17800Y20500
X18100Y20500
X18200Y21700
X17800Y21700
X16500Y22000
X15200Y21700
X14800Y21700
X14900Y20550
X15200Y20550
X20100Y16200
X19300Y15554
X19900Y15300
X21300Y15300
X22200Y15600
X24500Y20400
X23250Y20550
X22950Y20550
X22800Y21700
X23200Y21700
X24500Y22000
X25800Y21700
X26200Y21700
X26050Y20550
X25750Y20550
X30800Y21700
X31200Y21700
X32500Y22000
X33800Y21700
X34200Y21700
X34050Y20550
X33750Y20550
X32490Y20380
X31250Y20550
X30950Y20550
X18500Y600
T02
X6578Y587
X3822Y587
T03
X4216Y1650
X6184Y1650
T04
X19400Y1900
X20400Y1900
X21400Y1900
X22400Y1900
X23400Y1900
X24400Y1900
X25400Y1900
X25400Y900
X24400Y900
X23400Y900
X22400Y900
X21400Y900
X20400Y900
X19400Y900
X27400Y900
X28400Y900
X29400Y900
X29400Y1900
X28400Y1900
X27400Y1900
X27200Y11900
X28200Y11900
X28200Y12900
X27200Y12900
X26200Y12900
X25200Y12900
X25200Y11900
X26200Y11900
X24200Y11900
X24200Y12900
X29200Y12900
X30200Y12900
X30200Y11900
X29200Y11900
T05
X21235Y12315
X20528Y13022
X23000Y22700
X24000Y22700
X25000Y22700
X26000Y22700
X31000Y22700
X32000Y22700
X33000Y22700
X34000Y22700
X38200Y15600
X38200Y14600
X38400Y11600
X38400Y10600
X38400Y9600
X38400Y8600
X16800Y1300
X15800Y1300
X14800Y1300
X13400Y1300
X12400Y1300
X11400Y1300
X10000Y1300
X9000Y1300
X8000Y1300
X9200Y3400
X10200Y3400
X11200Y3400
X12450Y3500
X13450Y3500
X14450Y3500
X15450Y3500
X4500Y4500
X4500Y5500
X4500Y6500
X3250Y8700
X3250Y9700
X3250Y10700
X1200Y10200
X1200Y9200
X1200Y8200
X1200Y11200
X7000Y22700
X8000Y22700
X9000Y22700
X10000Y22700
X15000Y22700
X16000Y22700
X17000Y22700
X18000Y22700
T06
X3183Y18354
X3183Y16700
X3183Y15046
X1017Y15046
X1017Y16700
X1017Y18354
X1900Y6284
X1900Y4316
T07
X1500Y1500
X1500Y22500
X37900Y22500
X37900Y1500
M30
