G75*
%MOIN*%
%OFA0B0*%
%FSLAX24Y24*%
%IPPOS*%
%LPD*%
%AMOC8*
5,1,8,0,0,1.08239X$1,22.5*
%
%ADD10C,0.0780*%
%ADD11R,0.0453X0.0591*%
%ADD12R,0.0780X0.0780*%
%ADD13C,0.0640*%
%ADD14R,0.0591X0.0453*%
%ADD15R,0.0611X0.0493*%
%ADD16R,0.0240X0.0510*%
%ADD17R,0.0510X0.0240*%
%ADD18R,0.0493X0.0611*%
%ADD19C,0.0500*%
%ADD20C,0.0434*%
%ADD21C,0.0296*%
%ADD22R,0.0512X0.0512*%
%ADD23R,0.0217X0.0690*%
%ADD24R,0.1741X0.1221*%
%ADD25R,0.0316X0.0729*%
%ADD26R,0.0631X0.0631*%
%ADD27R,0.0548X0.0631*%
%ADD28R,0.0631X0.0434*%
%ADD29R,0.0355X0.0631*%
%ADD30R,0.0434X0.0650*%
%ADD31R,0.0355X0.0591*%
%ADD32R,0.0434X0.0312*%
%ADD33R,0.0827X0.0827*%
%ADD34R,0.1460X0.3980*%
%ADD35R,0.0591X0.1221*%
%ADD36R,0.0290X0.0540*%
%ADD37R,0.0434X0.0591*%
%ADD38R,0.0670X0.0178*%
%ADD39OC8,0.0580*%
%ADD40R,0.1221X0.0591*%
%ADD41R,0.0611X0.0867*%
%ADD42R,0.0611X0.0926*%
%ADD43C,0.0867*%
%ADD44R,0.0867X0.0867*%
%ADD45R,0.1280X0.0700*%
%ADD46R,0.0197X0.0571*%
%ADD47C,0.0414*%
%ADD48R,0.0631X0.0650*%
%ADD49R,0.0522X0.0650*%
%ADD50R,0.0512X0.0650*%
%ADD51C,0.0357*%
%ADD52R,0.0394X0.0276*%
%ADD53R,0.0591X0.0158*%
%ADD54R,0.0827X0.0985*%
%ADD55C,0.2290*%
%ADD56C,0.0320*%
D10*
X008000Y001300D03*
X009000Y001300D03*
X011400Y001300D03*
X012400Y001300D03*
X014800Y001300D03*
X015800Y001300D03*
X015450Y003500D03*
X014450Y003500D03*
X013450Y003500D03*
X011200Y003400D03*
X010200Y003400D03*
X009200Y003400D03*
X001200Y009200D03*
X001200Y010200D03*
X001200Y011200D03*
X008000Y022700D03*
X009000Y022700D03*
X010000Y022700D03*
X016000Y022700D03*
X017000Y022700D03*
X018000Y022700D03*
X024000Y022700D03*
X025000Y022700D03*
X026000Y022700D03*
X032000Y022700D03*
X033000Y022700D03*
X034000Y022700D03*
X038200Y015600D03*
X038200Y014600D03*
X038400Y011600D03*
X038400Y010600D03*
X038400Y009600D03*
X038400Y008600D03*
X021235Y012315D03*
X020528Y013022D03*
D11*
X013074Y013800D03*
X012326Y013800D03*
X010774Y011900D03*
X010026Y011900D03*
X005574Y009900D03*
X004826Y009900D03*
X006826Y021100D03*
X007574Y021100D03*
X009426Y021100D03*
X010174Y021100D03*
X014826Y021100D03*
X015574Y021100D03*
X017426Y021100D03*
X018174Y021100D03*
X022826Y021100D03*
X023574Y021100D03*
X025426Y021100D03*
X026174Y021100D03*
X030826Y021100D03*
X031574Y021100D03*
X033426Y021100D03*
X034174Y021100D03*
X035926Y017000D03*
X036674Y017000D03*
X027374Y008000D03*
X026626Y008000D03*
X027276Y007200D03*
X028024Y007200D03*
X032726Y007300D03*
X033474Y007300D03*
D12*
X016800Y001300D03*
X013400Y001300D03*
X012450Y003500D03*
X010000Y001300D03*
X001200Y008200D03*
X007000Y022700D03*
X015000Y022700D03*
X023000Y022700D03*
X031000Y022700D03*
D13*
X004800Y006500D02*
X004200Y006500D01*
X004200Y005500D02*
X004800Y005500D01*
X004800Y004500D02*
X004200Y004500D01*
X003550Y008700D02*
X002950Y008700D01*
X002950Y009700D02*
X003550Y009700D01*
X003550Y010700D02*
X002950Y010700D01*
D14*
X005550Y009174D03*
X005550Y008426D03*
X010050Y009926D03*
X010800Y009926D03*
X010800Y010674D03*
X010050Y010674D03*
G36*
X012566Y007232D02*
X012982Y006816D01*
X012662Y006496D01*
X012246Y006912D01*
X012566Y007232D01*
G37*
G36*
X012038Y006704D02*
X012454Y006288D01*
X012134Y005968D01*
X011718Y006384D01*
X012038Y006704D01*
G37*
G36*
X013116Y006682D02*
X013532Y006266D01*
X013212Y005946D01*
X012796Y006362D01*
X013116Y006682D01*
G37*
G36*
X012588Y006154D02*
X013004Y005738D01*
X012684Y005418D01*
X012268Y005834D01*
X012588Y006154D01*
G37*
G36*
X022551Y012740D02*
X022135Y012324D01*
X021815Y012644D01*
X022231Y013060D01*
X022551Y012740D01*
G37*
G36*
X022022Y013269D02*
X021606Y012853D01*
X021286Y013173D01*
X021702Y013589D01*
X022022Y013269D01*
G37*
X024800Y015226D03*
X025600Y015226D03*
X025600Y015974D03*
X024800Y015974D03*
X021300Y016626D03*
X021300Y017374D03*
X017600Y015974D03*
X016800Y015974D03*
X016800Y015226D03*
X017600Y015226D03*
X013300Y016626D03*
X013300Y017374D03*
X009600Y015974D03*
X008800Y015974D03*
X008800Y015226D03*
X009600Y015226D03*
X005400Y017526D03*
X005400Y018274D03*
X029300Y017374D03*
X029300Y016626D03*
X032900Y015974D03*
X033700Y015974D03*
X033700Y015226D03*
X032900Y015226D03*
X029250Y010624D03*
X029250Y009876D03*
X034200Y007374D03*
X034200Y006626D03*
X032600Y006224D03*
X032600Y005476D03*
D15*
X029000Y006146D03*
X029000Y006854D03*
G36*
X021310Y007090D02*
X021740Y006660D01*
X021392Y006312D01*
X020962Y006742D01*
X021310Y007090D01*
G37*
G36*
X020808Y006588D02*
X021238Y006158D01*
X020890Y005810D01*
X020460Y006240D01*
X020808Y006588D01*
G37*
G36*
X020442Y005362D02*
X020012Y005792D01*
X020360Y006140D01*
X020790Y005710D01*
X020442Y005362D01*
G37*
G36*
X019940Y004860D02*
X019510Y005290D01*
X019858Y005638D01*
X020288Y005208D01*
X019940Y004860D01*
G37*
G36*
X018990Y004539D02*
X019420Y004969D01*
X019768Y004621D01*
X019338Y004191D01*
X018990Y004539D01*
G37*
G36*
X019491Y004038D02*
X019921Y004468D01*
X020269Y004120D01*
X019839Y003690D01*
X019491Y004038D01*
G37*
G36*
X014110Y006340D02*
X014540Y005910D01*
X014192Y005562D01*
X013762Y005992D01*
X014110Y006340D01*
G37*
G36*
X013608Y005838D02*
X014038Y005408D01*
X013690Y005060D01*
X013260Y005490D01*
X013608Y005838D01*
G37*
X010851Y007467D03*
X010851Y008176D03*
X012400Y009246D03*
X012400Y009954D03*
X011600Y009946D03*
X011600Y010654D03*
G36*
X014839Y012937D02*
X015269Y012507D01*
X014921Y012159D01*
X014491Y012589D01*
X014839Y012937D01*
G37*
G36*
X015340Y013439D02*
X015770Y013009D01*
X015422Y012661D01*
X014992Y013091D01*
X015340Y013439D01*
G37*
X018500Y015246D03*
X018500Y015954D03*
X022200Y017646D03*
X022200Y018354D03*
X024500Y020746D03*
X024500Y021454D03*
X030300Y018554D03*
X030300Y017846D03*
X027800Y017254D03*
X027800Y016546D03*
X026500Y015954D03*
X026500Y015246D03*
X034550Y015246D03*
X034550Y015954D03*
X036600Y016154D03*
X036600Y015446D03*
X032500Y020746D03*
X032500Y021454D03*
X016500Y021454D03*
X016500Y020746D03*
X014200Y018354D03*
X014200Y017646D03*
X010500Y015954D03*
X010500Y015246D03*
X006200Y017546D03*
X006200Y018254D03*
X008500Y020746D03*
X008500Y021454D03*
X036800Y008454D03*
X036800Y007746D03*
D16*
G36*
X021457Y008654D02*
X021287Y008484D01*
X020927Y008844D01*
X021097Y009014D01*
X021457Y008654D01*
G37*
G36*
X021234Y008431D02*
X021064Y008261D01*
X020704Y008621D01*
X020874Y008791D01*
X021234Y008431D01*
G37*
G36*
X021011Y008208D02*
X020841Y008038D01*
X020481Y008398D01*
X020651Y008568D01*
X021011Y008208D01*
G37*
G36*
X020789Y007986D02*
X020619Y007816D01*
X020259Y008176D01*
X020429Y008346D01*
X020789Y007986D01*
G37*
G36*
X020566Y007763D02*
X020396Y007593D01*
X020036Y007953D01*
X020206Y008123D01*
X020566Y007763D01*
G37*
G36*
X020343Y007540D02*
X020173Y007370D01*
X019813Y007730D01*
X019983Y007900D01*
X020343Y007540D01*
G37*
G36*
X020120Y007318D02*
X019950Y007148D01*
X019590Y007508D01*
X019760Y007678D01*
X020120Y007318D01*
G37*
G36*
X019898Y007095D02*
X019728Y006925D01*
X019368Y007285D01*
X019538Y007455D01*
X019898Y007095D01*
G37*
G36*
X019675Y006872D02*
X019505Y006702D01*
X019145Y007062D01*
X019315Y007232D01*
X019675Y006872D01*
G37*
G36*
X019452Y006650D02*
X019282Y006480D01*
X018922Y006840D01*
X019092Y007010D01*
X019452Y006650D01*
G37*
G36*
X019230Y006427D02*
X019060Y006257D01*
X018700Y006617D01*
X018870Y006787D01*
X019230Y006427D01*
G37*
G36*
X019007Y006204D02*
X018837Y006034D01*
X018477Y006394D01*
X018647Y006564D01*
X019007Y006204D01*
G37*
G36*
X018784Y005981D02*
X018614Y005811D01*
X018254Y006171D01*
X018424Y006341D01*
X018784Y005981D01*
G37*
G36*
X018562Y005759D02*
X018392Y005589D01*
X018032Y005949D01*
X018202Y006119D01*
X018562Y005759D01*
G37*
G36*
X018339Y005536D02*
X018169Y005366D01*
X017809Y005726D01*
X017979Y005896D01*
X018339Y005536D01*
G37*
G36*
X018116Y005313D02*
X017946Y005143D01*
X017586Y005503D01*
X017756Y005673D01*
X018116Y005313D01*
G37*
G36*
X013773Y009656D02*
X013603Y009486D01*
X013243Y009846D01*
X013413Y010016D01*
X013773Y009656D01*
G37*
G36*
X013996Y009879D02*
X013826Y009709D01*
X013466Y010069D01*
X013636Y010239D01*
X013996Y009879D01*
G37*
G36*
X014219Y010102D02*
X014049Y009932D01*
X013689Y010292D01*
X013859Y010462D01*
X014219Y010102D01*
G37*
G36*
X014441Y010324D02*
X014271Y010154D01*
X013911Y010514D01*
X014081Y010684D01*
X014441Y010324D01*
G37*
G36*
X014664Y010547D02*
X014494Y010377D01*
X014134Y010737D01*
X014304Y010907D01*
X014664Y010547D01*
G37*
G36*
X014887Y010770D02*
X014717Y010600D01*
X014357Y010960D01*
X014527Y011130D01*
X014887Y010770D01*
G37*
G36*
X015110Y010992D02*
X014940Y010822D01*
X014580Y011182D01*
X014750Y011352D01*
X015110Y010992D01*
G37*
G36*
X015332Y011215D02*
X015162Y011045D01*
X014802Y011405D01*
X014972Y011575D01*
X015332Y011215D01*
G37*
G36*
X015555Y011438D02*
X015385Y011268D01*
X015025Y011628D01*
X015195Y011798D01*
X015555Y011438D01*
G37*
G36*
X015778Y011660D02*
X015608Y011490D01*
X015248Y011850D01*
X015418Y012020D01*
X015778Y011660D01*
G37*
G36*
X016000Y011883D02*
X015830Y011713D01*
X015470Y012073D01*
X015640Y012243D01*
X016000Y011883D01*
G37*
G36*
X016223Y012106D02*
X016053Y011936D01*
X015693Y012296D01*
X015863Y012466D01*
X016223Y012106D01*
G37*
G36*
X016446Y012329D02*
X016276Y012159D01*
X015916Y012519D01*
X016086Y012689D01*
X016446Y012329D01*
G37*
G36*
X016668Y012551D02*
X016498Y012381D01*
X016138Y012741D01*
X016308Y012911D01*
X016668Y012551D01*
G37*
G36*
X016891Y012774D02*
X016721Y012604D01*
X016361Y012964D01*
X016531Y013134D01*
X016891Y012774D01*
G37*
G36*
X017114Y012997D02*
X016944Y012827D01*
X016584Y013187D01*
X016754Y013357D01*
X017114Y012997D01*
G37*
D17*
G36*
X018116Y013187D02*
X017756Y012827D01*
X017586Y012997D01*
X017946Y013357D01*
X018116Y013187D01*
G37*
G36*
X018339Y012964D02*
X017979Y012604D01*
X017809Y012774D01*
X018169Y013134D01*
X018339Y012964D01*
G37*
G36*
X018562Y012741D02*
X018202Y012381D01*
X018032Y012551D01*
X018392Y012911D01*
X018562Y012741D01*
G37*
G36*
X018784Y012519D02*
X018424Y012159D01*
X018254Y012329D01*
X018614Y012689D01*
X018784Y012519D01*
G37*
G36*
X019007Y012296D02*
X018647Y011936D01*
X018477Y012106D01*
X018837Y012466D01*
X019007Y012296D01*
G37*
G36*
X019230Y012073D02*
X018870Y011713D01*
X018700Y011883D01*
X019060Y012243D01*
X019230Y012073D01*
G37*
G36*
X019452Y011850D02*
X019092Y011490D01*
X018922Y011660D01*
X019282Y012020D01*
X019452Y011850D01*
G37*
G36*
X019675Y011628D02*
X019315Y011268D01*
X019145Y011438D01*
X019505Y011798D01*
X019675Y011628D01*
G37*
G36*
X019898Y011405D02*
X019538Y011045D01*
X019368Y011215D01*
X019728Y011575D01*
X019898Y011405D01*
G37*
G36*
X020120Y011182D02*
X019760Y010822D01*
X019590Y010992D01*
X019950Y011352D01*
X020120Y011182D01*
G37*
G36*
X020343Y010960D02*
X019983Y010600D01*
X019813Y010770D01*
X020173Y011130D01*
X020343Y010960D01*
G37*
G36*
X020566Y010737D02*
X020206Y010377D01*
X020036Y010547D01*
X020396Y010907D01*
X020566Y010737D01*
G37*
G36*
X020789Y010514D02*
X020429Y010154D01*
X020259Y010324D01*
X020619Y010684D01*
X020789Y010514D01*
G37*
G36*
X021011Y010292D02*
X020651Y009932D01*
X020481Y010102D01*
X020841Y010462D01*
X021011Y010292D01*
G37*
G36*
X021234Y010069D02*
X020874Y009709D01*
X020704Y009879D01*
X021064Y010239D01*
X021234Y010069D01*
G37*
G36*
X021457Y009846D02*
X021097Y009486D01*
X020927Y009656D01*
X021287Y010016D01*
X021457Y009846D01*
G37*
G36*
X016223Y006394D02*
X015863Y006034D01*
X015693Y006204D01*
X016053Y006564D01*
X016223Y006394D01*
G37*
G36*
X016446Y006171D02*
X016086Y005811D01*
X015916Y005981D01*
X016276Y006341D01*
X016446Y006171D01*
G37*
G36*
X016668Y005949D02*
X016308Y005589D01*
X016138Y005759D01*
X016498Y006119D01*
X016668Y005949D01*
G37*
G36*
X016891Y005726D02*
X016531Y005366D01*
X016361Y005536D01*
X016721Y005896D01*
X016891Y005726D01*
G37*
G36*
X017114Y005503D02*
X016754Y005143D01*
X016584Y005313D01*
X016944Y005673D01*
X017114Y005503D01*
G37*
G36*
X016000Y006617D02*
X015640Y006257D01*
X015470Y006427D01*
X015830Y006787D01*
X016000Y006617D01*
G37*
G36*
X015778Y006840D02*
X015418Y006480D01*
X015248Y006650D01*
X015608Y007010D01*
X015778Y006840D01*
G37*
G36*
X015555Y007062D02*
X015195Y006702D01*
X015025Y006872D01*
X015385Y007232D01*
X015555Y007062D01*
G37*
G36*
X015332Y007285D02*
X014972Y006925D01*
X014802Y007095D01*
X015162Y007455D01*
X015332Y007285D01*
G37*
G36*
X015110Y007508D02*
X014750Y007148D01*
X014580Y007318D01*
X014940Y007678D01*
X015110Y007508D01*
G37*
G36*
X014887Y007730D02*
X014527Y007370D01*
X014357Y007540D01*
X014717Y007900D01*
X014887Y007730D01*
G37*
G36*
X014664Y007953D02*
X014304Y007593D01*
X014134Y007763D01*
X014494Y008123D01*
X014664Y007953D01*
G37*
G36*
X014441Y008176D02*
X014081Y007816D01*
X013911Y007986D01*
X014271Y008346D01*
X014441Y008176D01*
G37*
G36*
X014219Y008398D02*
X013859Y008038D01*
X013689Y008208D01*
X014049Y008568D01*
X014219Y008398D01*
G37*
G36*
X013996Y008621D02*
X013636Y008261D01*
X013466Y008431D01*
X013826Y008791D01*
X013996Y008621D01*
G37*
G36*
X013773Y008844D02*
X013413Y008484D01*
X013243Y008654D01*
X013603Y009014D01*
X013773Y008844D01*
G37*
D18*
X010754Y012800D03*
X010046Y012800D03*
X007254Y015400D03*
X006546Y015400D03*
X006546Y016200D03*
X007254Y016200D03*
X011146Y016900D03*
X011854Y016900D03*
X014546Y016200D03*
X015254Y016200D03*
X015254Y015400D03*
X014546Y015400D03*
X019246Y016800D03*
X019954Y016800D03*
X022746Y016300D03*
X023454Y016300D03*
X023454Y015500D03*
X022746Y015500D03*
X030746Y015500D03*
X031454Y015500D03*
X031454Y016300D03*
X030746Y016300D03*
X030846Y009800D03*
X031554Y009800D03*
X028754Y008000D03*
X028046Y008000D03*
X026604Y007200D03*
X025896Y007200D03*
X035246Y007400D03*
X035954Y007400D03*
D19*
X035346Y022550D02*
X035348Y022587D01*
X035354Y022624D01*
X035363Y022659D01*
X035377Y022694D01*
X035393Y022727D01*
X035414Y022758D01*
X035437Y022787D01*
X035463Y022813D01*
X035492Y022836D01*
X035523Y022857D01*
X035556Y022873D01*
X035591Y022887D01*
X035626Y022896D01*
X035663Y022902D01*
X035700Y022904D01*
X035737Y022902D01*
X035774Y022896D01*
X035809Y022887D01*
X035844Y022873D01*
X035877Y022857D01*
X035908Y022836D01*
X035937Y022813D01*
X035963Y022787D01*
X035986Y022758D01*
X036007Y022727D01*
X036023Y022694D01*
X036037Y022659D01*
X036046Y022624D01*
X036052Y022587D01*
X036054Y022550D01*
X036052Y022513D01*
X036046Y022476D01*
X036037Y022441D01*
X036023Y022406D01*
X036007Y022373D01*
X035986Y022342D01*
X035963Y022313D01*
X035937Y022287D01*
X035908Y022264D01*
X035877Y022243D01*
X035844Y022227D01*
X035809Y022213D01*
X035774Y022204D01*
X035737Y022198D01*
X035700Y022196D01*
X035663Y022198D01*
X035626Y022204D01*
X035591Y022213D01*
X035556Y022227D01*
X035523Y022243D01*
X035492Y022264D01*
X035463Y022287D01*
X035437Y022313D01*
X035414Y022342D01*
X035393Y022373D01*
X035377Y022406D01*
X035363Y022441D01*
X035354Y022476D01*
X035348Y022513D01*
X035346Y022550D01*
X003546Y002600D02*
X003548Y002637D01*
X003554Y002674D01*
X003563Y002709D01*
X003577Y002744D01*
X003593Y002777D01*
X003614Y002808D01*
X003637Y002837D01*
X003663Y002863D01*
X003692Y002886D01*
X003723Y002907D01*
X003756Y002923D01*
X003791Y002937D01*
X003826Y002946D01*
X003863Y002952D01*
X003900Y002954D01*
X003937Y002952D01*
X003974Y002946D01*
X004009Y002937D01*
X004044Y002923D01*
X004077Y002907D01*
X004108Y002886D01*
X004137Y002863D01*
X004163Y002837D01*
X004186Y002808D01*
X004207Y002777D01*
X004223Y002744D01*
X004237Y002709D01*
X004246Y002674D01*
X004252Y002637D01*
X004254Y002600D01*
X004252Y002563D01*
X004246Y002526D01*
X004237Y002491D01*
X004223Y002456D01*
X004207Y002423D01*
X004186Y002392D01*
X004163Y002363D01*
X004137Y002337D01*
X004108Y002314D01*
X004077Y002293D01*
X004044Y002277D01*
X004009Y002263D01*
X003974Y002254D01*
X003937Y002248D01*
X003900Y002246D01*
X003863Y002248D01*
X003826Y002254D01*
X003791Y002263D01*
X003756Y002277D01*
X003723Y002293D01*
X003692Y002314D01*
X003663Y002337D01*
X003637Y002363D01*
X003614Y002392D01*
X003593Y002423D01*
X003577Y002456D01*
X003563Y002491D01*
X003554Y002526D01*
X003548Y002563D01*
X003546Y002600D01*
D20*
X003900Y002600D03*
X035700Y022550D03*
D21*
X036350Y018925D02*
X036350Y018631D01*
X035976Y018019D02*
X035976Y017725D01*
X036724Y017725D02*
X036724Y018019D01*
X017294Y003574D02*
X017000Y003574D01*
X017000Y002826D02*
X017294Y002826D01*
X017906Y003200D02*
X018200Y003200D01*
D22*
X030100Y009837D03*
X030100Y010663D03*
D23*
X031083Y017080D03*
X031339Y017080D03*
X031594Y017080D03*
X031850Y017080D03*
X032106Y017080D03*
X032362Y017080D03*
X032618Y017080D03*
X032874Y017080D03*
X033130Y017080D03*
X033386Y017080D03*
X033642Y017080D03*
X033898Y017080D03*
X033898Y019481D03*
X033642Y019481D03*
X033386Y019481D03*
X033130Y019481D03*
X032874Y019481D03*
X032618Y019481D03*
X032362Y019481D03*
X032106Y019481D03*
X031850Y019481D03*
X031594Y019481D03*
X031339Y019481D03*
X031083Y019481D03*
X025898Y019481D03*
X025642Y019481D03*
X025386Y019481D03*
X025130Y019481D03*
X024874Y019481D03*
X024618Y019481D03*
X024362Y019481D03*
X024106Y019481D03*
X023850Y019481D03*
X023594Y019481D03*
X023339Y019481D03*
X023083Y019481D03*
X023083Y017080D03*
X023339Y017080D03*
X023594Y017080D03*
X023850Y017080D03*
X024106Y017080D03*
X024362Y017080D03*
X024618Y017080D03*
X024874Y017080D03*
X025130Y017080D03*
X025386Y017080D03*
X025642Y017080D03*
X025898Y017080D03*
X017898Y017080D03*
X017642Y017080D03*
X017386Y017080D03*
X017130Y017080D03*
X016874Y017080D03*
X016618Y017080D03*
X016362Y017080D03*
X016106Y017080D03*
X015850Y017080D03*
X015594Y017080D03*
X015339Y017080D03*
X015083Y017080D03*
X015083Y019481D03*
X015339Y019481D03*
X015594Y019481D03*
X015850Y019481D03*
X016106Y019481D03*
X016362Y019481D03*
X016618Y019481D03*
X016874Y019481D03*
X017130Y019481D03*
X017386Y019481D03*
X017642Y019481D03*
X017898Y019481D03*
X009898Y019481D03*
X009642Y019481D03*
X009386Y019481D03*
X009130Y019481D03*
X008874Y019481D03*
X008618Y019481D03*
X008362Y019481D03*
X008106Y019481D03*
X007850Y019481D03*
X007594Y019481D03*
X007339Y019481D03*
X007083Y019481D03*
X007083Y017080D03*
X007339Y017080D03*
X007594Y017080D03*
X007850Y017080D03*
X008106Y017080D03*
X008362Y017080D03*
X008618Y017080D03*
X008874Y017080D03*
X009130Y017080D03*
X009386Y017080D03*
X009642Y017080D03*
X009898Y017080D03*
D24*
X008490Y018280D03*
X016490Y018280D03*
X024490Y018280D03*
X032490Y018280D03*
D25*
X032483Y000600D03*
X032050Y000600D03*
X032916Y000600D03*
X033349Y000600D03*
X033782Y000600D03*
X034215Y000600D03*
X034648Y000600D03*
X035081Y000600D03*
D26*
X036046Y000649D03*
D27*
X031499Y000649D03*
D28*
X031617Y004232D03*
D29*
X031469Y003641D03*
D30*
X036026Y004852D03*
D31*
X036184Y003897D03*
D32*
X036072Y008146D03*
X036072Y008520D03*
X036072Y008894D03*
X035049Y008894D03*
X035049Y008520D03*
X035049Y008146D03*
D33*
X033887Y008500D03*
X032313Y008500D03*
X036413Y020400D03*
X037987Y020400D03*
D34*
X035300Y011400D03*
X032780Y011400D03*
D35*
X028500Y020355D03*
X028500Y022245D03*
X020600Y022245D03*
X020600Y020355D03*
X012500Y020355D03*
X012500Y022245D03*
X004300Y022245D03*
X004300Y020355D03*
D36*
X005050Y015900D03*
X005400Y015900D03*
X005750Y015900D03*
X013050Y015800D03*
X013400Y015800D03*
X013750Y015800D03*
X020950Y015800D03*
X021300Y015800D03*
X021650Y015800D03*
X028950Y015800D03*
X029300Y015800D03*
X029650Y015800D03*
X010177Y007500D03*
X009823Y007500D03*
D37*
X030126Y006833D03*
X030874Y006833D03*
X030500Y005967D03*
D38*
X029842Y005048D03*
X029842Y004792D03*
X029842Y004536D03*
X029842Y004280D03*
X029842Y004024D03*
X029842Y003769D03*
X029842Y003513D03*
X027637Y003513D03*
X027637Y003769D03*
X027637Y004024D03*
X027637Y004280D03*
X027637Y004536D03*
X027637Y004792D03*
X027637Y005048D03*
D39*
X027400Y001900D03*
X028400Y001900D03*
X029400Y001900D03*
X029400Y000900D03*
X028400Y000900D03*
X027400Y000900D03*
X025400Y000900D03*
X024400Y000900D03*
X023400Y000900D03*
X022400Y000900D03*
X021400Y000900D03*
X020400Y000900D03*
X019400Y000900D03*
X019400Y001900D03*
X020400Y001900D03*
X021400Y001900D03*
X022400Y001900D03*
X023400Y001900D03*
X024400Y001900D03*
X025400Y001900D03*
X025200Y011900D03*
X026200Y011900D03*
X026200Y012900D03*
X025200Y012900D03*
X024200Y012900D03*
X024200Y011900D03*
X027200Y011900D03*
X028200Y011900D03*
X028200Y012900D03*
X027200Y012900D03*
X029200Y012900D03*
X030200Y012900D03*
X030200Y011900D03*
X029200Y011900D03*
D40*
X007345Y012400D03*
X005455Y012400D03*
D41*
X037114Y006791D03*
X037114Y003209D03*
X038886Y003209D03*
D42*
X038876Y006791D03*
D43*
X002313Y006284D02*
X001487Y006284D01*
X001487Y004316D02*
X002313Y004316D01*
D44*
X003183Y015046D03*
X003183Y016700D03*
X003183Y018354D03*
X001017Y018354D03*
X001017Y016700D03*
X001017Y015046D03*
D45*
X038000Y016900D03*
X038000Y018780D03*
D46*
X005712Y001650D03*
X005456Y001650D03*
X005200Y001650D03*
X004944Y001650D03*
X004688Y001650D03*
D47*
X004216Y001650D02*
X003842Y001650D01*
X006184Y001650D02*
X006558Y001650D01*
D48*
X005594Y000587D03*
X004806Y000587D03*
D49*
X004074Y000587D03*
D50*
X006326Y000587D03*
D51*
X006578Y000429D02*
X006578Y000745D01*
X003822Y000745D02*
X003822Y000429D01*
D52*
X006547Y003126D03*
X006547Y003500D03*
X006547Y003874D03*
X007453Y003874D03*
X007453Y003500D03*
X007453Y003126D03*
D53*
X011684Y012356D03*
X011684Y012553D03*
X011684Y012750D03*
X011684Y012947D03*
X011684Y013144D03*
X013416Y013144D03*
X013416Y012947D03*
X013416Y012750D03*
X013416Y012553D03*
X013416Y012356D03*
D54*
G36*
X021318Y005912D02*
X021902Y006496D01*
X022596Y005802D01*
X022012Y005218D01*
X021318Y005912D01*
G37*
G36*
X020204Y004798D02*
X020788Y005382D01*
X021482Y004688D01*
X020898Y004104D01*
X020204Y004798D01*
G37*
D55*
X001500Y001500D03*
X001500Y022500D03*
X037900Y022500D03*
X037900Y001500D03*
D56*
X030900Y004600D03*
X030700Y004300D03*
X030600Y003900D03*
X030200Y002800D03*
X014800Y011900D03*
X014446Y011496D03*
X014100Y012300D03*
X014200Y013200D03*
X014600Y013200D03*
X013900Y013900D03*
X006000Y003400D03*
X006700Y002600D03*
X007100Y002200D03*
X035400Y017000D03*
M02*
