G75*
%MOIN*%
%OFA0B0*%
%FSLAX24Y24*%
%IPPOS*%
%LPD*%
%AMOC8*
5,1,8,0,0,1.08239X$1,22.5*
%
%ADD10C,0.0780*%
%ADD11R,0.0780X0.0780*%
%ADD12C,0.0640*%
%ADD13OC8,0.0580*%
%ADD14C,0.0867*%
%ADD15R,0.0867X0.0867*%
%ADD16C,0.0414*%
%ADD17C,0.0357*%
%ADD18C,0.2290*%
%ADD19C,0.0320*%
D10*
X008000Y001300D03*
X009000Y001300D03*
X011400Y001300D03*
X012400Y001300D03*
X014800Y001300D03*
X015800Y001300D03*
X015450Y003500D03*
X014450Y003500D03*
X013450Y003500D03*
X011200Y003400D03*
X010200Y003400D03*
X009200Y003400D03*
X001200Y009200D03*
X001200Y010200D03*
X001200Y011200D03*
X008000Y022700D03*
X009000Y022700D03*
X010000Y022700D03*
X016000Y022700D03*
X017000Y022700D03*
X018000Y022700D03*
X024000Y022700D03*
X025000Y022700D03*
X026000Y022700D03*
X032000Y022700D03*
X033000Y022700D03*
X034000Y022700D03*
X038200Y015600D03*
X038200Y014600D03*
X038400Y011600D03*
X038400Y010600D03*
X038400Y009600D03*
X038400Y008600D03*
X021235Y012315D03*
X020528Y013022D03*
D11*
X023000Y022700D03*
X031000Y022700D03*
X015000Y022700D03*
X007000Y022700D03*
X001200Y008200D03*
X010000Y001300D03*
X012450Y003500D03*
X013400Y001300D03*
X016800Y001300D03*
D12*
X004800Y004500D02*
X004200Y004500D01*
X004200Y005500D02*
X004800Y005500D01*
X004800Y006500D02*
X004200Y006500D01*
X003550Y008700D02*
X002950Y008700D01*
X002950Y009700D02*
X003550Y009700D01*
X003550Y010700D02*
X002950Y010700D01*
D13*
X019400Y001900D03*
X020400Y001900D03*
X021400Y001900D03*
X022400Y001900D03*
X023400Y001900D03*
X024400Y001900D03*
X025400Y001900D03*
X025400Y000900D03*
X024400Y000900D03*
X023400Y000900D03*
X022400Y000900D03*
X021400Y000900D03*
X020400Y000900D03*
X019400Y000900D03*
X027400Y000900D03*
X028400Y000900D03*
X029400Y000900D03*
X029400Y001900D03*
X028400Y001900D03*
X027400Y001900D03*
X027200Y011900D03*
X028200Y011900D03*
X028200Y012900D03*
X027200Y012900D03*
X026200Y012900D03*
X025200Y012900D03*
X025200Y011900D03*
X026200Y011900D03*
X024200Y011900D03*
X024200Y012900D03*
X029200Y012900D03*
X030200Y012900D03*
X030200Y011900D03*
X029200Y011900D03*
D14*
X002313Y006284D02*
X001487Y006284D01*
X001487Y004316D02*
X002313Y004316D01*
D15*
X003183Y015046D03*
X003183Y016700D03*
X003183Y018354D03*
X001017Y018354D03*
X001017Y016700D03*
X001017Y015046D03*
D16*
X003842Y001650D02*
X004216Y001650D01*
X006184Y001650D02*
X006558Y001650D01*
D17*
X006578Y000745D02*
X006578Y000429D01*
X003822Y000429D02*
X003822Y000745D01*
D18*
X001500Y001500D03*
X001500Y022500D03*
X037900Y022500D03*
X037900Y001500D03*
D19*
X030900Y004600D03*
X030700Y004300D03*
X030600Y003900D03*
X030200Y002800D03*
X014800Y011900D03*
X014446Y011496D03*
X014100Y012300D03*
X014200Y013200D03*
X014600Y013200D03*
X013900Y013900D03*
X006000Y003400D03*
X006700Y002600D03*
X007100Y002200D03*
X035400Y017000D03*
M02*
